<svg xmlns="http://www.w3.org/2000/svg" version="1.1" xmlns:xlink="http://www.w3.org/1999/xlink" xmlns:svgjs="http://svgjs.dev/svgjs" width="1500" height="367" viewBox="0 0 1500 367"><g transform="matrix(1,0,0,1,-0.9090909090909918,-0.018385302776323442)"><svg viewBox="0 0 396 97" data-background-color="#ffffff" preserveAspectRatio="xMidYMid meet" height="367" width="1500" xmlns="http://www.w3.org/2000/svg" xmlns:xlink="http://www.w3.org/1999/xlink"><g id="tight-bounds" transform="matrix(1,0,0,1,0.2400000000000091,0.0048593307065516456)"><svg viewBox="0 0 395.52 96.99028133858693" height="96.99028133858693" width="395.52"><g><svg viewBox="0 0 568.6904123381923 139.45550942364048" height="96.99028133858693" width="395.52"><g transform="matrix(1,0,0,1,0,19.27351830674047)"><svg viewBox="0 0 395.5199999999999 100.90847281015954" height="100.90847281015954" width="395.5199999999999"><g id="textblocktransform"><svg viewBox="0 0 395.5199999999999 100.90847281015954" height="100.90847281015954" width="395.5199999999999" id="textblock"><g><svg viewBox="0 0 395.5199999999999 100.90847281015954" height="100.90847281015954" width="395.5199999999999"><g transform="matrix(1,0,0,1,0,0)"><svg width="395.5199999999999" viewBox="0.78 -37.5 149.94 38.26" height="100.90847281015954" data-palette-color="#c82fa9"><g class="wordmark-text-0" data-fill-palette-color="primary" id="text-0"><path d="M10.74-36.21L10.74-22.75Q12.55-23.95 14.87-24.85 17.19-25.76 19.43-25.76L19.43-25.76Q23.17-25.76 25.51-24.06 27.86-22.36 28.96-19.51 30.05-16.65 30.05-13.16L30.05-13.16Q30.05-9.16 28.32-6.01 26.59-2.86 23.51-1.05 20.43 0.76 16.38 0.76L16.38 0.76Q12.99 0.76 10-0.11 7.01-0.98 5.1-1.81L5.1-1.81 5.1-34.64 0.78-34.64 0.78-36.5Q1.46-36.82 2.84-37.04 4.22-37.26 5.8-37.38 7.37-37.5 8.64-37.5L8.64-37.5Q9.64-37.5 10.19-37.34 10.74-37.18 10.74-36.21L10.74-36.21ZM18.6-22.8L18.6-22.8Q16.58-22.8 14.56-22.09 12.55-21.39 10.74-20.41L10.74-20.41 10.74-2.76Q10.74-2.73 11.56-2.54 12.38-2.34 13.64-2.15 14.89-1.95 16.19-1.95L16.19-1.95Q20.12-1.95 22.06-5.05 24-8.15 24-13.55L24-13.55Q24-17.75 22.79-20.28 21.58-22.8 18.6-22.8ZM62.67-12.45L62.67-12.45Q62.67-8.47 60.87-5.51 59.08-2.54 56.05-0.89 53.02 0.76 49.29 0.76L49.29 0.76Q45.53 0.76 42.48-0.9 39.43-2.56 37.63-5.53 35.84-8.5 35.84-12.45L35.84-12.45Q35.84-16.46 37.63-19.45 39.43-22.44 42.48-24.1 45.53-25.76 49.29-25.76L49.29-25.76Q53.05-25.76 56.08-24.1 59.1-22.44 60.89-19.45 62.67-16.46 62.67-12.45ZM41.87-12.5L41.87-12.5Q41.87-9.74 42.48-7.3 43.09-4.86 44.7-3.36 46.31-1.86 49.29-1.86L49.29-1.86Q52.27-1.86 53.85-3.36 55.44-4.86 56.04-7.3 56.64-9.74 56.64-12.5L56.64-12.5Q56.64-15.28 56.04-17.71 55.44-20.14 53.85-21.64 52.27-23.14 49.29-23.14L49.29-23.14Q46.31-23.14 44.7-21.64 43.09-20.14 42.48-17.71 41.87-15.28 41.87-12.5ZM95.21-12.45L95.21-12.45Q95.21-8.47 93.42-5.51 91.62-2.54 88.59-0.89 85.57 0.76 81.83 0.76L81.83 0.76Q78.07 0.76 75.02-0.9 71.97-2.56 70.17-5.53 68.38-8.5 68.38-12.45L68.38-12.45Q68.38-16.46 70.17-19.45 71.97-22.44 75.02-24.1 78.07-25.76 81.83-25.76L81.83-25.76Q85.59-25.76 88.62-24.1 91.65-22.44 93.43-19.45 95.21-16.46 95.21-12.45ZM74.41-12.5L74.41-12.5Q74.41-9.74 75.02-7.3 75.63-4.86 77.24-3.36 78.85-1.86 81.83-1.86L81.83-1.86Q84.81-1.86 86.4-3.36 87.98-4.86 88.58-7.3 89.18-9.74 89.18-12.5L89.18-12.5Q89.18-15.28 88.58-17.71 87.98-20.14 86.4-21.64 84.81-23.14 81.83-23.14L81.83-23.14Q78.85-23.14 77.24-21.64 75.63-20.14 75.02-17.71 74.41-15.28 74.41-12.5ZM103.17-34.59L98.85-34.59 98.85-36.45Q99.53-36.77 100.91-36.99 102.29-37.21 103.86-37.33 105.44-37.45 106.71-37.45L106.71-37.45Q107.71-37.45 108.26-37.29 108.81-37.13 108.81-36.16L108.81-36.16 108.81-7.35Q108.81-4.35 109.07-2.69 109.34-1.03 109.51-0.34L109.51-0.34Q108.83 0.02 107.81 0.23 106.78 0.44 106 0.44L106 0.44Q104.78 0.44 103.97-0.06 103.17-0.56 103.17-1.9L103.17-1.9 103.17-34.59ZM124.36-23.95L124.36-23.95Q124.36-22.78 123.36-21.41 122.36-20.04 120.81-18.65 119.26-17.26 117.61-15.99 115.96-14.72 114.67-13.75L114.67-13.75 122.4-3.86 126.02-6.2 126.99-4.71Q126.43-3.61 125.2-2.42 123.97-1.22 122.55-0.39 121.14 0.44 119.96 0.44L119.96 0.44Q118.69 0.44 117.86-0.71L117.86-0.71 109.86-10.96Q109.86-10.96 109.68-11.23 109.51-11.5 109.51-11.89L109.51-11.89Q109.51-12.52 110.05-12.99L110.05-12.99Q110.83-13.7 112.16-14.79 113.49-15.89 114.86-17.22 116.23-18.55 117.17-19.93 118.11-21.31 118.11-22.56L118.11-22.56Q118.11-23.22 117.91-23.71L117.91-23.71Q119.6-24.54 120.4-24.98 121.21-25.42 121.66-25.59 122.11-25.76 122.7-25.76L122.7-25.76Q123.53-25.76 123.94-25.23 124.36-24.71 124.36-23.95ZM130.97-3.2L132.92-5.91Q133.8-5.27 135.16-4.32 136.51-3.37 138.16-2.64 139.81-1.9 141.52-1.9L141.52-1.9Q143.13-1.9 144.4-2.84 145.67-3.78 145.67-5.49L145.67-5.49Q145.67-6.84 144.59-7.75 143.52-8.67 142.08-9.31 140.64-9.96 139.52-10.45L139.52-10.45Q137.61-11.3 135.77-12.28 133.93-13.26 132.72-14.78 131.51-16.31 131.51-18.8L131.51-18.8Q131.51-21.31 133.11-22.84 134.71-24.37 137.1-25.06 139.49-25.76 141.91-25.76L141.91-25.76Q143.42-25.76 145.08-25.57 146.74-25.39 147.9-24.98 149.06-24.56 149.06-23.85L149.06-23.85Q149.06-23.68 148.92-23.34L148.92-23.34 147.26-20.14Q146.65-20.56 145.46-21.2 144.28-21.85 142.8-22.38 141.32-22.9 139.76-22.9L139.76-22.9Q138.08-22.9 137-22.12 135.93-21.34 135.93-19.9L135.93-19.9Q135.93-18.41 137-17.41 138.08-16.41 139.76-15.66 141.45-14.92 143.32-14.21 145.2-13.5 146.89-12.59 148.57-11.67 149.65-10.33 150.72-8.98 150.72-6.96L150.72-6.96Q150.72-4.81 149.81-3.33 148.89-1.86 147.39-0.95 145.89-0.05 144.08 0.35 142.28 0.76 140.52 0.76L140.52 0.76Q139 0.76 137.32 0.43 135.63 0.1 134.16-0.42 132.68-0.93 131.75-1.5 130.82-2.08 130.82-2.59L130.82-2.59Q130.82-2.91 130.97-3.2L130.97-3.2Z" fill="#c82fa9" data-fill-palette-color="primary"></path></g></svg></g></svg></g></svg></g></svg></g><g transform="matrix(1,0,0,1,419.34206862713114,0)"><svg viewBox="0 0 149.34834371106115 139.45550942364048" height="139.45550942364048" width="149.34834371106115"><g><svg xmlns="http://www.w3.org/2000/svg" xml:space="preserve" viewBox="0 5.312 100 93.376" x="0" y="0" height="139.45550942364048" width="149.34834371106115" class="icon-icon-0" data-fill-palette-color="accent" id="icon-0"><path d="M91.822 10.995V5.312L52.71 29.765zM52.71 31.876v66.812L100 76.418V9.605zM8.178 10.995V5.312L47.29 29.765zM47.29 31.876v66.812L0 76.418V9.605z" fill="#bd25ce" data-fill-palette-color="accent"></path></svg></g></svg></g></svg></g><defs></defs></svg><rect width="395.52" height="96.99028133858693" fill="none" stroke="none" visibility="hidden"></rect></g></svg></g></svg>